<svg xmlns="http://www.w3.org/2000/svg" width="102" height="121" viewBox="0 0 64 64"
xml:space="preserve">
<path fill="#FAB400"
    d="M31.414 42.586a2 2 0 0 0-2.828 0l-7.419 7.419A3.073 3.073 0 0 0 21 50H11a3 3 0 0 0-3 3v7h16v-7c0-.056-.002-.112-.005-.167l7.419-7.419a2 2 0 0 0 0-2.828z" />
<path fill="#00A0C8" d="M12 50a4 4 0 0 0 8 0h-8z" />
<path fill="#D2AA82" d="M16 52a2 2 0 0 1-2-2v-3h4v3a2 2 0 0 1-2 2z" />
<path fill="#F0C8A0"
    d="M17 48h-2a3 3 0 0 1-3-3v-3a2 2 0 0 1 2-2h4a2 2 0 0 1 2 2v3a3 3 0 0 1-3 3z" />
<path fill="#0A5078"
    d="M18 40h-4a2 2 0 0 0-2 2v-2a2 2 0 0 1 2-2h4a2 2 0 0 1 2 2v2a2 2 0 0 0-2-2z" />
<path fill="#00A0C8"
    d="M53 50H43c-.056 0-.112.002-.167.005l-7.419-7.419a2 2 0 1 0-2.828 2.828l7.419 7.419A3.073 3.073 0 0 0 40 53v7h16v-7a3 3 0 0 0-3-3z" />
<path fill="#0A5078" d="M44 50a4 4 0 0 0 8 0h-8z" />
<path fill="#D2AA82" d="M48 52a2 2 0 0 1-2-2v-3h4v3a2 2 0 0 1-2 2z" />
<path fill="#F0C8A0"
    d="M49 48h-2a3 3 0 0 1-3-3v-3a2 2 0 0 1 2-2h4a2 2 0 0 1 2 2v3a3 3 0 0 1-3 3z" />
<path fill="#DC9600"
    d="M50 40h-4a2 2 0 0 0-2 2v-2a2 2 0 0 1 2-2h4a2 2 0 0 1 2 2v2a2 2 0 0 0-2-2z" />
<path fill="#F0C8A0"
    d="M29.414 46h1.172c.781 0 1.414-.633 1.414-1.414v-5.172c0-.781-.633-1.414-1.414-1.414h-1.172c-.781 0-1.414.633-1.414 1.414v5.172c0 .781.633 1.414 1.414 1.414z" />
<path fill="#D2AA82"
    d="M33.414 46h1.172c.781 0 1.414-.633 1.414-1.414v-5.172c0-.781-.633-1.414-1.414-1.414h-1.172c-.781 0-1.414.633-1.414 1.414v5.172c0 .781.633 1.414 1.414 1.414z" />
<path fill="#0A5078"
    d="M20 28h-8c-4.411 0-8-3.589-8-8s3.589-8 8-8h8c4.411 0 8 3.589 8 8s-3.589 8-8 8zm-8-12c-2.206 0-4 1.794-4 4s1.794 4 4 4h8c2.206 0 4-1.794 4-4s-1.794-4-4-4h-8z" />
<g>
    <path fill="#0A5078"
        d="M52 28h-8c-4.411 0-8-3.589-8-8s3.589-8 8-8h8c4.411 0 8 3.589 8 8s-3.589 8-8 8zm-8-12c-2.206 0-4 1.794-4 4s1.794 4 4 4h8c2.206 0 4-1.794 4-4s-1.794-4-4-4h-8z" />
</g>
<g>
    <path fill="#00325A"
        d="M28 20a8.05 8.05 0 0 0-.062-1h-4.064a3.994 3.994 0 0 1-1.231 4h4.773c.376-.927.584-1.94.584-3zM40 20c0-.345.044-.68.127-1h-4.064a7.965 7.965 0 0 0 .521 4h4.773A3.994 3.994 0 0 1 40 20z" />
</g>
<g>
    <path fill="#00A0C8" d="M42 22H22a2 2 0 0 1 0-4h20a2 2 0 0 1 0 4z" />
</g>
<g>
    <path fill="#FAB400" d="M32 9a1 1 0 0 1-1-1V6a1 1 0 1 1 2 0v2a1 1 0 0 1-1 1z" />
</g>
<g>
    <path fill="#FAB400"
        d="M39 10a.999.999 0 0 1-.707-1.707l2-2a.999.999 0 1 1 1.414 1.414l-2 2A.997.997 0 0 1 39 10z" />
</g>
<g>
    <path fill="#FAB400"
        d="M25 10a.997.997 0 0 1-.707-.293l-2-2a.999.999 0 1 1 1.414-1.414l2 2A.999.999 0 0 1 25 10z" />
</g>
<g>
    <path fill="#FAB400" d="M32 35a1 1 0 0 1-1-1v-2a1 1 0 1 1 2 0v2a1 1 0 0 1-1 1z" />
</g>
<g>
    <path fill="#FAB400"
        d="M41 34a.997.997 0 0 1-.707-.293l-2-2a.999.999 0 1 1 1.414-1.414l2 2A.999.999 0 0 1 41 34z" />
</g>
<g>
    <path fill="#FAB400"
        d="M23 34a.999.999 0 0 1-.707-1.707l2-2a.999.999 0 1 1 1.414 1.414l-2 2A.997.997 0 0 1 23 34z" />
</g>
</svg>