<svg xmlns="http://www.w3.org/2000/svg" width="102" height="121" viewBox="0 0 48 48">
    <defs>
        <style>
            .cls-2 {
                fill: #f26674
            }

            .cls-3 {
                fill: #6fabe6
            }

            .cls-4 {
                fill: #425b72
            }

            .cls-5 {
                fill: #82bcf4
            }
        </style>
    </defs>
    <g id="graphic_growth_goal" data-name="graphic growth goal">
        <path style="fill:#db5669" d="M40 2v6h-8l2-3-2-3h8z" />
        <path class="cls-2" d="M40 2v4h-2a4 4 0 0 1-4-4z" />
        <path class="cls-3"
            d="M4 31h8v16H4zM12 27h8v20h-8zM20 23h8v24h-8zM28 19h8v28h-8zM36 15h8v32h-8z" />
        <path class="cls-4" d="M39 15V1a1 1 0 0 1 2 0v14a1 1 0 0 1-2 0z" />
        <path class="cls-2"
            d="M17.23 11.32a1 1 0 0 0-.34 2l1.54.27-11 7.62A1 1 0 0 0 8 23c.45 0-.4.49 11.6-7.81l-.28 1.58a1 1 0 0 0 2 .34c1-5.84 1.68-4.78-4.09-5.79z" />
        <path class="cls-4" d="M47 48H1a1 1 0 0 1 0-2h46a1 1 0 0 1 0 2z" />
        <path class="cls-5"
            d="M12 31c0 14.74-.1 14 0 14a5 5 0 0 1-5-5v-9zM20 27c0 18.76-.1 18 0 18a5 5 0 0 1-5-5V27zM28 23c0 23.28-.1 22 0 22a5 5 0 0 1-5-5V23zM36 19c0 27.19-.1 26 0 26a5 5 0 0 1-5-5V19zM44 15c0 31.16-.1 30 0 30a5 5 0 0 1-5-5V15z" />
    </g>
</svg>