<svg xmlns="http://www.w3.org/2000/svg" width="102" height="121" viewBox="0 0 1000 1000"
xml:space="preserve">
<switch>
    <g>
        <circle fill="#382B73" cx="500" cy="500" r="398" />
        <circle fill="#473080" cx="500" cy="500" r="344.3" />
        <g fill="#382B73">
            <path
                d="M733.6 591.5c-1.8-2.1-3.7-4.1-5.6-6.1-5.3-5.3-11.1-10-17.3-14.2l-.9-.6c-.7-.4-1.4-.9-2.1-1.3-.4-.3-.9-.5-1.3-.8-.6-.4-1.2-.7-1.9-1.1-.5-.3-.9-.5-1.4-.8-.6-.3-1.3-.7-1.9-1-.5-.2-.9-.5-1.4-.7-.6-.3-1.3-.6-2-1-.5-.2-.9-.4-1.4-.7-.9-.4-1.7-.8-2.6-1.2-.8-.3-1.6-.7-2.4-1l-1.5-.6c-.7-.3-1.4-.5-2.1-.8-.2-.1-.5-.2-.7-.3l-1.7-4.7c9.3-8.4 16.2-19.9 19.4-33.1.7.2 1.3.3 2 .3 6.1 0 11-7.2 11-16s-4.9-16-11-16c-.5 0-1 .1-1.5.2-.2-.8-.4-1.7-.6-2.5 0-.1 0-.2-.1-.3-.4-1.6-.9-3.2-1.4-4.8 0-.1 0-.1-.1-.2 0-.1-.1-.2-.1-.3-.2-.7-.5-1.4-.7-2.1-.1-.2-.1-.3-.2-.5-.2-.6-.4-1.1-.7-1.7-.1-.2-.2-.5-.3-.7-.1-.3-.2-.5-.3-.8-.6-1.4-1.2-2.7-1.9-4l-.1-.1c-.5-.9-.9-1.7-1.4-2.5-.1-.1-.1-.2-.1-.3-.1-.2-.2-.4-.3-.5-.2-.4-.5-.8-.7-1.2-.1-.2-.3-.4-.4-.6-3.1-4.8-6.8-9.1-10.9-12.8-.1-.1-.3-.2-.4-.3-.5-.5-1-.9-1.6-1.3-.2-.2-.4-.3-.6-.5-.5-.4-1-.8-1.5-1.1-.2-.2-.5-.3-.7-.5-.5-.3-.9-.7-1.4-1-.2-.2-.5-.3-.7-.5l-1.5-.9c-.2-.2-.5-.3-.7-.4l-1.5-.9c-.2-.1-.5-.3-.7-.4-.5-.3-1.1-.6-1.6-.8-.2-.1-.5-.2-.7-.3-.6-.3-1.2-.5-1.8-.8l-.6-.3c-.7-.3-1.3-.5-2-.8-.1-.1-.3-.1-.4-.2-.8-.3-1.6-.5-2.4-.8-2.6-.8-5.3-1.4-8.1-1.8-.6-.1-1.1-.1-1.7-.2-.2 0-.5 0-.7-.1-.5 0-1.1-.1-1.7-.1h-.7c-.8 0-1.5-.1-2.3-.1h-2.4c-.6 0-1.3.1-1.9.1-1.7.1-3.3.4-5 .7-.7.1-1.4.3-2.2.4-.3.1-.5.1-.8.2-.4.1-.9.2-1.3.3-.3.1-.7.2-1 .3-.4.1-.9.3-1.3.4-.2.1-.5.2-.7.2-.1 0-.1 0-.2.1-.6.2-1.3.4-1.9.7-.1 0-.2.1-.2.1-.6.2-1.3.5-1.9.8-.1 0-.2.1-.3.1-.7.3-1.4.6-2.1 1l-1.8.9c-.1 0-.2.1-.3.1-4.5 2.5-8.7 5.6-12.5 9.2l-.2.2c-.8.7-1.5 1.5-2.2 2.3-.1.1-.2.2-.2.3l-2.1 2.4-.3.3c-.6.8-1.3 1.6-1.9 2.4-.1.1-.2.3-.3.4-.5.7-1 1.5-1.5 2.2-.1.1-.2.3-.3.4-.1.2-.2.3-.3.5-.4.6-.8 1.2-1.1 1.8-.1.2-.2.3-.3.5-2.2 3.8-4 7.8-5.5 12.1-.1.2-.1.3-.2.5-.2.5-.3.9-.5 1.4-.1.3-.2.6-.3.8-.1.3-.2.7-.3 1-.1.3-.2.5-.2.8 0 .1-.1.3-.1.4-.1.3-.2.7-.3 1-.1.3-.1.6-.2.9-.1.5-.2 1.1-.3 1.6-.5-.1-1-.2-1.5-.2-6.1 0-11 7.2-11 16s4.9 16 11 16c.7 0 1.4-.1 2-.3 3.2 13.2 10.1 24.8 19.4 33.1l-1.7 4.7c-.2.1-.5.2-.7.3-.7.3-1.4.5-2.1.8-.5.2-1 .4-1.4.6-.8.3-1.7.7-2.5 1.1-.8.4-1.7.7-2.5 1.1-.5.2-.9.5-1.4.7-.6.3-1.3.6-1.9 1-.5.2-.9.5-1.4.7-.6.3-1.2.7-1.9 1-.5.3-.9.5-1.4.8-.6.4-1.2.7-1.9 1.1-.4.3-.9.5-1.3.8-.7.4-1.3.8-2 1.3-.3.2-.7.4-1 .6-.2.1-.4.3-.6.4-.1 0-.1.1-.2.1l-.1.1c-.9.6-1.7 1.2-2.6 1.8-.1.1-.2.1-.2.2l-2.4 1.8c-.1.1-.2.2-.3.2-.8.6-1.6 1.2-2.3 1.8-.1.1-.2.2-.4.3-.7.6-1.5 1.2-2.2 1.8-.1.1-.3.2-.4.4l-2.1 1.8c-.2.1-.3.3-.5.4-.7.6-1.3 1.2-1.9 1.8l-.5.5-1.8 1.8-.6.6c-.6.6-1.1 1.2-1.7 1.8-.2.2-.4.5-.6.7-.5.6-1 1.2-1.6 1.8-.2.3-.5.6-.7.8-.5.6-1 1.1-1.4 1.7-.3.3-.5.6-.7.9-.4.6-.9 1.1-1.3 1.7-.3.4-.5.7-.8 1.1-.4.5-.8 1.1-1.2 1.6-.3.4-.6.8-.8 1.2-.4.5-.7 1-1.1 1.5-.3.4-.6.9-.9 1.3l-.9 1.5-.9 1.5c-.3.5-.6.9-.8 1.4-.3.6-.6 1.1-.9 1.7-.2.4-.5.8-.7 1.3-.3.6-.7 1.2-1 1.9-.2.4-.4.7-.6 1.1-.1.2-.2.5-.4.7-.3-.2-.7-.3-1-.5-.5-.2-.9-.4-1.4-.7-.9-.4-1.7-.8-2.6-1.2-.8-.3-1.6-.7-2.3-1l-1.5-.6c-.7-.3-1.4-.5-2.1-.8-.2-.1-.5-.2-.7-.3l-1.7-4.7c9.3-8.4 16.2-19.9 19.4-33.1.7.2 1.3.3 2 .3 6.1 0 11-7.2 11-16s-4.9-16-11-16c-.5 0-1 .1-1.5.2-.2-.8-.4-1.7-.6-2.5 0-.1 0-.2-.1-.3-.4-1.6-.9-3.2-1.4-4.8 0-.1 0-.1-.1-.2 0-.1-.1-.2-.1-.3-.2-.7-.5-1.4-.7-2.1-.1-.2-.1-.3-.2-.5-.2-.6-.4-1.1-.7-1.7-.1-.2-.2-.5-.3-.7-.1-.3-.2-.5-.3-.8-.6-1.4-1.2-2.7-1.9-4l-.1-.1c-.5-.9-.9-1.7-1.4-2.5-.1-.1-.1-.2-.1-.3-.1-.2-.2-.4-.3-.5-.2-.4-.5-.8-.7-1.2-.1-.2-.3-.4-.4-.6-3.1-4.8-6.8-9.1-10.9-12.8-.1-.1-.3-.2-.4-.3-.5-.5-1-.9-1.6-1.3-.2-.2-.4-.3-.6-.5-.5-.4-1-.8-1.5-1.1-.2-.2-.5-.3-.7-.5-.5-.3-.9-.7-1.4-1-.2-.2-.5-.3-.7-.5l-1.5-.9c-.2-.1-.5-.3-.7-.4l-1.5-.9c-.2-.1-.5-.3-.7-.4-.5-.3-1.1-.6-1.6-.8-.2-.1-.5-.2-.7-.3-.6-.3-1.2-.5-1.8-.8l-.6-.3c-.7-.3-1.3-.5-2-.8-.1-.1-.3-.1-.4-.2-.8-.3-1.6-.5-2.4-.8-2.6-.8-5.3-1.4-8.1-1.8-.6-.1-1.1-.1-1.7-.2-.2 0-.5 0-.7-.1-.5 0-1.1-.1-1.7-.1h-.7c-.8 0-1.5-.1-2.3-.1h-2.4c-.6 0-1.3.1-1.9.1-1.7.1-3.3.4-5 .7-.7.1-1.4.3-2.2.4-.3.1-.5.1-.8.2-.4.1-.9.2-1.3.3-.3.1-.7.2-1 .3-.4.1-.9.3-1.3.4-.2.1-.5.2-.7.2-.1 0-.1 0-.2.1-.6.2-1.3.4-1.9.7-.1 0-.2.1-.2.1-.6.2-1.3.5-1.9.8-.1 0-.2.1-.3.1-.7.3-1.4.6-2.1 1l-1.8.9c-.1 0-.2.1-.3.1-4.5 2.5-8.7 5.6-12.5 9.2l-.2.2c-.8.7-1.5 1.5-2.2 2.3-.1.1-.2.2-.2.3l-2.1 2.4-.3.3c-.6.8-1.3 1.6-1.9 2.4-.1.1-.2.3-.3.4-.5.7-1 1.5-1.5 2.2-.1.1-.2.3-.3.4-.1.2-.2.3-.3.5-.4.6-.8 1.2-1.1 1.8-.1.2-.2.3-.3.5-2.2 3.8-4 7.8-5.5 12.1-.1.2-.1.3-.2.5-.2.5-.3.9-.5 1.4-.1.3-.2.6-.3.8-.1.3-.2.7-.3 1-.1.3-.2.5-.2.8 0 .1-.1.3-.1.4-.1.3-.2.7-.3 1-.1.3-.1.6-.2.9-.1.5-.2 1.1-.3 1.6-.5-.1-1-.2-1.5-.2-6.1 0-11 7.2-11 16s4.9 16 11 16c.7 0 1.4-.1 2-.3 3.2 13.2 10.1 24.8 19.4 33.1l-1.7 4.7c-.2.1-.5.2-.7.3-.7.3-1.4.5-2.1.8-.5.2-1 .4-1.4.6-.8.3-1.7.7-2.5 1.1-.8.4-1.7.7-2.5 1.1-.5.2-.9.5-1.4.7-.3.2-.7.3-1 .5-4.2-8.3-9.3-16.1-15.3-23-1.8-2.1-3.7-4.1-5.6-6.1-5.3-5.3-11.1-10-17.3-14.2l-.9-.6c-.7-.4-1.4-.9-2.1-1.3-.4-.3-.9-.5-1.3-.8-.6-.4-1.3-.7-1.9-1.1-.5-.3-.9-.5-1.4-.8-.6-.3-1.3-.7-1.9-1-.5-.2-.9-.5-1.4-.7-.6-.3-1.3-.7-2-1-.5-.2-.9-.4-1.4-.7-.9-.4-1.7-.8-2.6-1.2-.8-.3-1.6-.7-2.3-1l-1.5-.6c-.7-.3-1.4-.5-2.1-.8-.2-.1-.5-.2-.7-.3l-1.7-4.7c9.3-8.4 16.2-19.9 19.4-33.1.7.2 1.3.3 2 .3 6.1 0 11-7.2 11-16s-4.9-16-11-16c-.5 0-1 .1-1.5.2-.2-.8-.4-1.7-.6-2.5 0-.1 0-.2-.1-.3-.4-1.6-.9-3.2-1.4-4.8 0-.1 0-.1-.1-.2 0-.1-.1-.2-.1-.3-.2-.7-.5-1.4-.7-2.1-.1-.2-.1-.3-.2-.5-.2-.6-.4-1.1-.7-1.7-.1-.2-.2-.5-.3-.7-.1-.3-.2-.5-.3-.8-.6-1.4-1.2-2.7-1.9-4l-.1-.1c-.5-.9-.9-1.7-1.4-2.5-.1-.1-.1-.2-.1-.3-.1-.2-.2-.4-.3-.5-.2-.4-.5-.8-.7-1.2-.1-.2-.3-.4-.4-.6-3.1-4.8-6.8-9.1-10.9-12.8-.1-.1-.3-.2-.4-.3-.5-.4-1-.9-1.6-1.3-.2-.2-.4-.3-.6-.5-.5-.4-1-.8-1.4-1.1-.2-.2-.5-.3-.7-.5-.5-.3-.9-.7-1.4-1-.2-.2-.5-.3-.7-.5l-1.5-.9c-.2-.2-.5-.3-.7-.4l-1.5-.9c-.2-.1-.5-.3-.7-.4-.5-.3-1.1-.6-1.6-.8-.2-.1-.5-.2-.7-.3-.6-.3-1.2-.5-1.8-.8l-.6-.3c-.7-.3-1.3-.5-2-.8-.1-.1-.3-.1-.4-.2-.8-.3-1.6-.5-2.4-.8-2.6-.8-5.3-1.4-8.1-1.8-.6-.1-1.1-.1-1.7-.2-.2 0-.5 0-.7-.1-.5 0-1.1-.1-1.7-.1h-.7c-.8 0-1.5-.1-2.3-.1h-2.4c-.6 0-1.3.1-1.9.1-1.7.1-3.3.4-5 .7-.7.1-1.4.3-2.2.4-.3.1-.5.1-.8.2-.4.1-.9.2-1.3.3-.3.1-.7.2-1 .3-.4.1-.9.3-1.3.4-.2.1-.5.2-.7.2-.1 0-.1 0-.2.1-.6.2-1.3.4-1.9.7-.1 0-.2.1-.2.1-.6.2-1.3.5-1.9.8-.1 0-.2.1-.3.1-.7.3-1.4.6-2.1 1l-1.8.9c-.1 0-.2.1-.3.1-4.5 2.5-8.7 5.6-12.5 9.2l-.2.2c-.8.7-1.5 1.5-2.2 2.3-.1.1-.2.2-.2.3l-2.1 2.4-.3.3c-.6.8-1.3 1.6-1.9 2.4-.1.1-.2.3-.3.4-.5.7-1 1.5-1.5 2.2-.1.1-.2.3-.3.4-.1.2-.2.3-.3.5-.4.6-.8 1.2-1.1 1.8-.1.2-.2.3-.3.5-2.2 3.8-4 7.8-5.5 12.1-.1.2-.1.3-.2.5-.2.5-.3.9-.5 1.4-.1.3-.2.6-.3.8-.1.3-.2.7-.3 1-.1.3-.2.5-.2.8 0 .1-.1.3-.1.4-.1.3-.2.7-.3 1-.1.3-.1.6-.2.9-.1.5-.2 1.1-.3 1.6-.5-.1-1-.2-1.5-.2-6.1 0-11 7.2-11 16s4.9 16 11 16c.7 0 1.4-.1 2-.3 3.2 13.2 10.1 24.8 19.4 33.1l-1.7 4.7c-.2.1-.5.2-.7.3-.7.3-1.4.5-2.1.8-.5.2-1 .4-1.4.6-.8.3-1.7.7-2.5 1.1-.8.4-1.7.7-2.5 1.1-.5.2-.9.5-1.4.7-.6.3-1.3.6-1.9 1-.5.2-.9.5-1.4.7-.6.3-1.2.7-1.9 1-.5.3-.9.5-1.4.8-.6.4-1.2.7-1.9 1.1-.4.3-.9.5-1.3.8-.7.4-1.3.9-2 1.3-.3.2-.7.4-1 .6-.2.1-.4.3-.6.4-.1 0-.1.1-.2.1l-.1.1c-.9.6-1.7 1.2-2.6 1.8l-.2.2-2.4 1.8c-.1.1-.2.2-.3.2-.8.6-1.5 1.2-2.3 1.8-.1.1-.2.2-.4.3-.7.6-1.5 1.2-2.2 1.8-.1.1-.3.2-.4.4l-2.1 1.8c-.2.1-.3.3-.5.4-.7.6-1.3 1.2-1.9 1.8l-.5.5-1.8 1.8-.6.6c-.6.6-1.1 1.2-1.7 1.8-.2.2-.4.5-.6.7-.5.6-1 1.2-1.6 1.8-.2.3-.5.6-.7.8-.5.6-1 1.1-1.4 1.7-.3.3-.5.6-.7.9-.4.6-.9 1.1-1.3 1.7-.3.4-.5.7-.8 1.1-.4.5-.8 1.1-1.2 1.6-.3.4-.6.8-.8 1.2-.4.5-.7 1-1.1 1.5-.3.4-.6.9-.9 1.3l-.9 1.5-.9 1.5c-.3.5-.6.9-.8 1.4-.3.6-.6 1.1-1 1.7-.2.4-.5.8-.7 1.2-.3.6-.7 1.2-1 1.8-.2.4-.4.8-.6 1.1-.3.7-.7 1.4-1 2-.2.3-.3.7-.5 1-.4.7-.7 1.5-1 2.3-.1.3-.2.5-.4.8-.4.8-.7 1.7-1 2.5l-.3.6c-.4.9-.7 1.8-1 2.7-.1.1-.1.3-.2.4-.4 1-.7 2-1.1 3.1 0 .1 0 .1-.1.2-3.6 10.9-5.5 22.6-5.5 34.7v34.1c0 15.8 12.9 28.7 28.7 28.7h120.6v21.3c0 15.8 12.9 28.7 28.7 28.7h165.2c15.8 0 28.7-12.9 28.7-28.7v-21.3h120.6c15.8 0 28.7-12.9 28.7-28.7v-34.1c.8-26.3-9.4-51.7-26.2-71.2zM475.2 334.7c-.1.7-.1 1.4-.1 2.1 0 1.2.1 2.3.2 3.5 0 .3.1.5.1.8.2 1.4.6 2.7 1 3.9.1.3.2.6.3.8.4 1.1 1 2.2 1.6 3.3.2.4.5.8.8 1.2.1.2.3.4.4.6.8 1.2 1.8 2.3 2.8 3.4.3.3.6.6.9.8l1.8 1.5c4.2 3.1 9.3 4.9 14.9 4.9s10.7-1.8 14.9-4.9c.6-.5 1.3-1 1.8-1.5 1.4-1.3 2.6-2.7 3.7-4.2.1-.2.3-.4.4-.6.3-.4.5-.8.8-1.2.6-1.1 1.1-2.2 1.6-3.3.1-.3.2-.6.3-.8.4-1.3.8-2.6 1-3.9 0-.3.1-.5.1-.8.2-1.1.2-2.3.2-3.5 0-.7 0-1.4-.1-2.1v-.2c-.1-.7-.2-1.4-.3-2-2-11.7-12.2-20.6-24.5-20.6s-22.5 8.9-24.5 20.6c-.1.7-.2 1.4-.3 2 .2.1.2.1.2.2z" />
            <path
                d="M425.1 379.9c-1.5 5.4-2.7 10.7-3.6 15.8-5.1 28.3-.7 47.3 12.7 55.1 4 2.3 8.3 3.4 12.9 3.4 15.7 0 34.5-12.3 52.9-31 18.4 18.7 37.3 31 52.9 31 4.6 0 8.9-1.1 12.9-3.4 13.4-7.8 17.8-26.8 12.7-55.1-.9-5.1-2.2-10.4-3.6-15.8 32.8-8.5 56.8-23.1 56.8-43.2s-24-34.6-56.8-43.2c1.5-5.4 2.7-10.7 3.6-15.8 5.1-28.3.7-47.3-12.7-55.1-13.4-7.8-32.1-2-54 16.5-3.9 3.3-7.9 7-11.8 11-3.9-4-7.9-7.7-11.8-11-21.9-18.6-40.6-24.3-54-16.5-13.4 7.8-17.8 26.8-12.7 55.1.9 5.1 2.2 10.4 3.6 15.8-32.8 8.5-56.8 23.1-56.8 43.2s24 34.7 56.8 43.2zm11.1-104.8c-3.7-20.2-1.6-35.3 5.4-39.4 1.5-.9 3.3-1.3 5.4-1.3 7.7 0 19.1 5.8 31.5 16.3 3.8 3.2 7.5 6.7 11.3 10.6-6.5 7.5-13 15.8-19.1 24.7-10.6.9-21 2.3-30.9 4.3-1.5-5.3-2.7-10.4-3.6-15.2zm85.3-24.4c15.7-13.3 29.8-19.1 36.8-15 7 4.1 9.1 19.1 5.4 39.4-.9 4.9-2.1 10-3.5 15.2-9.9-1.9-20.3-3.3-30.9-4.3-6.2-8.9-12.6-17.2-19.1-24.7 3.8-3.9 7.6-7.4 11.3-10.6zm42.3 147.7c3.7 20.2 1.6 35.3-5.4 39.4-8.2 4.7-26.8-3.9-48.2-25.7 6.6-7.6 13-15.9 19.2-24.7 10.6-.9 21.1-2.3 30.9-4.3 1.4 5.3 2.6 10.4 3.5 15.3zm-122.1 39.4c-7-4.1-9.1-19.1-5.4-39.4.9-4.9 2.1-10 3.5-15.2 9.9 1.9 20.3 3.3 30.9 4.3 6.1 8.7 12.6 17.1 19.2 24.7-21.5 21.7-40 30.3-48.2 25.6zM468 318.2c3.6-6.2 7.3-12.1 11.1-17.9 6.7-.4 13.7-.6 21-.6 7.3 0 14.3.2 21 .6 3.8 5.7 7.5 11.7 11.1 17.9 3.6 6.2 6.9 12.3 9.9 18.5-3.1 6.2-6.4 12.3-9.9 18.5-3.6 6.3-7.3 12.3-11.1 17.9-6.7.4-13.7.6-21 .6-7.3 0-14.3-.2-21-.6-3.7-5.6-7.4-11.5-11.1-17.9-3.6-6.2-6.9-12.3-9.9-18.5 3-6.1 6.3-12.3 9.9-18.5zm-13 44.5c1.7 2.9 3.4 5.8 5.2 8.6-5.5-.7-10.8-1.5-15.8-2.4 1.7-4.9 3.7-9.9 5.8-14.9 1.5 2.9 3.1 5.8 4.8 8.7zm45 26c3.3 0 6.7-.1 10-.2-3.4 4.5-6.7 8.6-10 12.5-3.3-3.9-6.7-8-10-12.5 3.3.2 6.7.2 10 .2zm45-26c1.7-2.9 3.3-5.8 4.9-8.8 2.1 5.1 4.1 10 5.8 14.9-5 .9-10.3 1.8-15.8 2.4 1.7-2.7 3.5-5.6 5.1-8.5zm0-52c-1.7-2.9-3.4-5.8-5.2-8.6 5.5.7 10.8 1.5 15.8 2.4-1.7 4.9-3.7 9.9-5.8 14.9-1.5-2.8-3.1-5.8-4.8-8.7zm-45-26c-3.3 0-6.7.1-10 .2 3.3-4.4 6.6-8.5 10-12.5 3.4 3.9 6.7 8.1 10 12.5-3.3-.1-6.7-.2-10-.2zm-45 26c-1.7 2.9-3.3 5.8-4.9 8.8-2.1-5.1-4.1-10-5.8-14.9 5-.9 10.3-1.8 15.8-2.4-1.7 2.7-3.4 5.6-5.1 8.5zm103.6 26c4.6-9.8 8.6-19.5 11.8-28.9 29.6 7.7 46.2 19.4 46.2 28.9s-16.7 21.2-46.2 28.9c-3.2-9.4-7.2-19.1-11.8-28.9zm-117.2 0c-4.6 9.8-8.6 19.5-11.8 28.9-29.6-7.7-46.2-19.4-46.2-28.9s16.7-21.2 46.2-28.9c3.2 9.4 7.2 19.1 11.8 28.9z" />
        </g>
        <g>
            <path fill="#1CAEE4"
                d="M462 644.1v34.1c0 15.8-12.9 28.7-28.7 28.7H268.1c-15.8 0-28.7-12.9-28.7-28.7v-34.1c0-38.4 19.5-72.3 49.1-92.3.3-.2.6-.4.8-.6 7.2-4.8 15.1-8.8 23.4-11.8 11.9-4.3 24.6-6.7 38-6.7 13.3 0 26.1 2.3 38 6.7 8.3 3 16.1 7 23.4 11.8 6.3 4.1 12 8.9 17.3 14.1 20.2 20.2 32.6 48.1 32.6 78.8z" />
            <path fill="#27C1E6"
                d="M429.4 565.4c-5.3-5.3-11.1-10-17.3-14.2-17.6-11.6-38.7-18.4-61.4-18.4-22.7 0-43.8 6.8-61.4 18.4-30.1 19.9-49.9 54.1-49.9 92.9v16.3c0-38.8 19.8-72.9 49.9-92.9 17.6-11.6 38.7-18.4 61.4-18.4 22.7 0 43.8 6.8 61.4 18.4 6.3 4.1 12 8.9 17.3 14.2 20.1 20.1 32.6 48 32.6 78.7v-16.3c0-30.7-12.4-58.5-32.6-78.7z" />
            <path fill="#E6E7E8"
                d="M350.7 532.8v110.6l-12.5-34.2-25.5-69.8c11.9-4.2 24.7-6.6 38-6.6zM388.7 539.5l-25.5 69.8-12.5 34.2V532.8c13.4 0 26.1 2.4 38 6.7z" />
            <path fill="#FFF"
                d="m348.4 549.1-23.5 23.8-12.2-33.4 4.4-11.8h33.6v21.4zM353 549.1l23.5 23.8 12.2-33.4-4.4-11.8h-33.6v21.4z" />
            <path fill="#1CAEE4" d="m363.2 609.3-12.5 34.2-12.5-34.2 6.7-47.7h11.6z" />
            <g fill="#009ADD">
                <path
                    d="M346.8 561.6h-1.9l-6.7 47.7 12.5 34.2-8.4-34.2zM356.5 561.6h-1.9l4.5 47.7-8.4 34.2 12.5-34.2z" />
            </g>
            <path fill="#1CAEE4"
                d="m363.4 563.5-10.7 10.7c-1.1 1.1-2.9 1.1-4.1 0L338 563.5c-1.1-1.1-1.1-2.9 0-4.1l10.7-10.7c1.1-1.1 2.9-1.1 4.1 0l10.7 10.7c1 1.2 1 3-.1 4.1z" />
            <path fill="#27C1E6"
                d="m338 561.6 10.7-10.7c1.1-1.1 2.9-1.1 4.1 0l10.7 10.7c.3.3.5.6.6.9.4-1 .2-2.3-.6-3.1l-10.7-10.7c-1.1-1.1-2.9-1.1-4.1 0L338 559.5c-.8.8-1.1 2.1-.6 3.1.1-.4.4-.7.6-1z" />
            <path fill="#009ADD"
                d="m362.7 558.8-10 10c-1.1 1.1-2.9 1.1-4.1 0l-10-10-.7.7c-1.1 1.1-1.1 2.9 0 4.1l10.7 10.7c1.1 1.1 2.9 1.1 4.1 0l10.7-10.7c1.1-1.1 1.1-2.9 0-4.1l-.7-.7z" />
            <path fill="#136DA0"
                d="M433.3 687.7H268.1c-15.8 0-28.7-12.9-28.7-28.7v19.1c0 15.8 12.9 28.7 28.7 28.7h165.2c15.8 0 28.7-12.9 28.7-28.7V659c0 15.9-12.8 28.7-28.7 28.7z" />
            <ellipse fill="#E6E7E8" cx="293" cy="486" rx="11" ry="16" />
            <ellipse fill="#E6E7E8" cx="408.5" cy="486" rx="11" ry="16" />
            <path fill="#FFF"
                d="M408.5 484.7c0 35.6-25.9 64.4-57.7 64.4S293 520.3 293 484.7c0-3.3.2-6.6.7-9.8 3-22.1 16.1-40.6 33.9-49.3 5.8-2.9 12.2-4.7 18.8-5.2 1.4-.1 2.8-.2 4.3-.2 27.4 0 50.3 21.3 56.2 49.9 1 4.7 1.6 9.6 1.6 14.6z" />
            <path fill="#D1D3D4"
                d="M350.7 539.7c-30.5 0-55.4-26.4-57.6-59.8-.1 1.6-.2 3.2-.2 4.8 0 35.6 25.9 64.4 57.7 64.4s57.7-28.8 57.7-64.4c0-1.6-.1-3.1-.2-4.7-2 33.4-26.9 59.7-57.4 59.7z" />
            <g fill="#009ADD">
                <path
                    d="M289.9 619.8c-3.6 0-6.5 2.9-6.5 6.5v61.9h13v-61.9c0-3.5-2.9-6.5-6.5-6.5zM411.5 619.8c-3.6 0-6.5 2.9-6.5 6.5v61.9h13v-61.9c0-3.5-2.9-6.5-6.5-6.5z" />
            </g>
            <path fill="#1CAEE4"
                d="M407 470.1c-7.2 3.3-15.1 5.2-23.5 5.2-19.5 0-36.6-9.9-46.7-24.9-4.9-7.2-8.1-15.7-9.1-24.8 2.1-1 4.2-1.9 6.4-2.7 2.4-.8 4.9-1.5 7.4-1.9 1.6-.3 3.3-.5 5-.7.9-.1 1.8-.1 2.8-.2h1.5c2.5 0 4.9.2 7.3.5 14.3 2 27 9.8 36 21.3 1.8 2.3 3.5 4.7 5 7.3 1.1 1.9 2.2 3.9 3.1 5.9 1.1 2.3 2 4.7 2.8 7.2.8 2.7 1.4 5.2 2 7.8z" />
            <path fill="#1CAEE4"
                d="M346.4 420.4c-.3 11.1-3.8 21.4-9.7 30-9.5 14-25.1 23.4-43.1 24.5.4-3 1-5.9 1.7-8.7.8-2.9 1.7-5.7 2.9-8.5 1.6-3.8 3.5-7.5 5.7-10.9 5.2-7.9 12-14.5 19.8-19.1 1.2-.7 2.5-1.4 3.8-2.1 2-1 4.2-1.9 6.3-2.6 2.6-.9 5.3-1.6 8-2 1.6-.3 3.1-.4 4.6-.6z" />
            <path fill="#009ADD"
                d="M404.9 462.5c-4.5 1.1-9.1 1.6-13.9 1.6-20 0-38.7-9.9-49.9-26.6-3-4.5-5.4-9.4-7.1-14.6 2.4-.8 4.9-1.5 7.4-1.9 1.5 4.3 3.5 8.4 6.1 12.2 9.8 14.5 26.1 23.2 43.5 23.2 3.8 0 7.5-.4 11.1-1.2 1.1 2.4 2 4.8 2.8 7.3z" />
            <path fill="#009ADD"
                d="M399 449.4c-1 .1-2 .1-3 .1-18.3 0-35.4-10.1-45.6-26.9-.4-.7-.9-1.5-1.3-2.3h1.5c2.5 0 4.9.2 7.3.5 8.5 12.8 21.7 20.6 36 21.3 1.9 2.3 3.6 4.7 5.1 7.3zM341.9 421c-1.3 8.2-4.8 16.2-10.2 23.1-8.7 11.1-21.7 18.8-36.3 22.1.8-2.9 1.7-5.7 2.9-8.5 11.1-3.3 20.8-9.7 27.5-18.2 3.9-5 6.7-10.6 8.1-16.5 2.6-.9 5.3-1.5 8-2zM323.8 427.7c-.6 1-1.2 1.9-1.9 2.8-4.8 6.7-10.9 12.3-17.9 16.3 5.2-7.9 11.9-14.5 19.8-19.1z" />
            <g>
                <path fill="#1CAEE4"
                    d="M760.6 644.1v34.1c0 15.8-12.9 28.7-28.7 28.7H566.7c-15.8 0-28.7-12.9-28.7-28.7v-34.1c0-38.4 19.5-72.3 49.1-92.3.3-.2.6-.4.8-.6 7.2-4.8 15.1-8.8 23.4-11.8 11.9-4.3 24.6-6.7 38-6.7s26.1 2.3 38 6.7c8.3 3 16.1 7 23.4 11.8 6.3 4.1 12 8.9 17.3 14.1 20.1 20.2 32.6 48.1 32.6 78.8z" />
                <path fill="#27C1E6"
                    d="M728 565.4c-5.3-5.3-11.1-10-17.3-14.2-17.6-11.6-38.7-18.4-61.4-18.4-22.7 0-43.8 6.8-61.4 18.4-30.1 19.9-49.9 54.1-49.9 92.9v16.3c0-38.8 19.8-72.9 49.9-92.9 17.6-11.6 38.7-18.4 61.4-18.4 22.7 0 43.8 6.8 61.4 18.4 6.3 4.1 12 8.9 17.3 14.2 20.1 20.1 32.6 48 32.6 78.7v-16.3c0-30.7-12.5-58.5-32.6-78.7z" />
                <path fill="#E6E7E8"
                    d="M649.3 532.8v110.6l-12.5-34.2-25.5-69.8c11.9-4.2 24.6-6.6 38-6.6zM687.3 539.5l-25.5 69.8-12.5 34.2V532.8c13.3 0 26.1 2.4 38 6.7z" />
                <path fill="#FFF"
                    d="m647 549.1-23.5 23.8-12.2-33.4 4.4-11.8h33.6v21.4zM651.6 549.1l23.5 23.8 12.2-33.4-4.4-11.8h-33.6v21.4z" />
                <path fill="#1CAEE4"
                    d="m661.8 609.3-12.5 34.2-12.5-34.2 6.7-47.7h11.6z" />
                <g fill="#009ADD">
                    <path
                        d="M645.4 561.6h-1.9l-6.7 47.7 12.5 34.2-8.4-34.2zM655.1 561.6h-1.9l4.5 47.7-8.4 34.2 12.5-34.2z" />
                </g>
                <path fill="#1CAEE4"
                    d="m662 563.5-10.7 10.7c-1.1 1.1-2.9 1.1-4.1 0l-10.7-10.7c-1.1-1.1-1.1-2.9 0-4.1l10.7-10.7c1.1-1.1 2.9-1.1 4.1 0l10.7 10.7c1.1 1.2 1.1 3 0 4.1z" />
                <path fill="#27C1E6"
                    d="m636.6 561.6 10.7-10.7c1.1-1.1 2.9-1.1 4.1 0l10.7 10.7c.3.3.5.6.6.9.4-1 .2-2.3-.6-3.1l-10.7-10.7c-1.1-1.1-2.9-1.1-4.1 0l-10.7 10.7c-.8.8-1.1 2.1-.6 3.1.1-.3.3-.6.6-.9z" />
                <path fill="#009ADD"
                    d="m661.3 558.8-10 10c-1.1 1.1-2.9 1.1-4.1 0l-10-10-.7.7c-1.1 1.1-1.1 2.9 0 4.1l10.7 10.7c1.1 1.1 2.9 1.1 4.1 0l10.7-10.7c1.1-1.1 1.1-2.9 0-4.1l-.7-.7z" />
                <path fill="#136DA0"
                    d="M731.9 687.7H566.7c-15.8 0-28.7-12.9-28.7-28.7v19.1c0 15.8 12.9 28.7 28.7 28.7h165.2c15.8 0 28.7-12.9 28.7-28.7V659c0 15.9-12.9 28.7-28.7 28.7z" />
                <ellipse fill="#E6E7E8" cx="591.5" cy="486" rx="11" ry="16" />
                <ellipse fill="#E6E7E8" cx="707" cy="486" rx="11" ry="16" />
                <path fill="#FFF"
                    d="M707 484.7c0 35.6-25.9 64.4-57.7 64.4s-57.7-28.8-57.7-64.4c0-3.3.2-6.6.7-9.8 3-22.1 16.1-40.6 33.9-49.3 5.8-2.9 12.2-4.7 18.8-5.2 1.4-.1 2.8-.2 4.3-.2 27.4 0 50.3 21.3 56.2 49.9 1 4.7 1.5 9.6 1.5 14.6z" />
                <path fill="#D1D3D4"
                    d="M649.3 539.7c-30.5 0-55.4-26.4-57.6-59.8-.1 1.6-.2 3.2-.2 4.8 0 35.6 25.9 64.4 57.7 64.4s57.7-28.8 57.7-64.4c0-1.6-.1-3.1-.2-4.7-2 33.4-27 59.7-57.4 59.7z" />
                <g fill="#009ADD">
                    <path
                        d="M588.5 619.8c-3.6 0-6.5 2.9-6.5 6.5v61.9h13v-61.9c0-3.5-2.9-6.5-6.5-6.5zM710.1 619.8c-3.6 0-6.5 2.9-6.5 6.5v61.9h13v-61.9c0-3.5-2.9-6.5-6.5-6.5z" />
                </g>
                <path fill="#1CAEE4"
                    d="M705.5 470.1c-7.2 3.3-15.1 5.2-23.5 5.2-19.5 0-36.6-9.9-46.7-24.9-4.9-7.2-8.1-15.7-9.1-24.8 2.1-1 4.2-1.9 6.4-2.7 2.4-.8 4.9-1.5 7.4-1.9 1.6-.3 3.3-.5 5-.7.9-.1 1.8-.1 2.8-.2h1.5c2.5 0 4.9.2 7.3.5 14.3 2 27 9.8 36 21.3 1.8 2.3 3.5 4.7 5 7.3 1.1 1.9 2.2 3.9 3.1 5.9 1.1 2.3 2 4.7 2.8 7.2.8 2.7 1.5 5.2 2 7.8z" />
                <path fill="#1CAEE4"
                    d="M645 420.4c-.3 11.1-3.8 21.4-9.7 30-9.5 14-25.1 23.4-43.1 24.5.4-3 1-5.9 1.7-8.7.8-2.9 1.7-5.7 2.9-8.5 1.6-3.8 3.5-7.5 5.7-10.9 5.2-7.9 12-14.5 19.8-19.1 1.2-.7 2.5-1.4 3.8-2.1 2-1 4.2-1.9 6.3-2.6 2.6-.9 5.3-1.6 8-2 1.6-.3 3-.4 4.6-.6z" />
                <path fill="#009ADD"
                    d="M703.5 462.5c-4.5 1.1-9.1 1.6-13.9 1.6-20 0-38.7-9.9-49.9-26.6-3-4.5-5.4-9.4-7.1-14.6 2.4-.8 4.9-1.5 7.4-1.9 1.5 4.3 3.5 8.4 6.1 12.2 9.8 14.5 26.1 23.2 43.5 23.2 3.8 0 7.5-.4 11.1-1.2 1 2.4 2 4.8 2.8 7.3z" />
                <path fill="#009ADD"
                    d="M697.6 449.4c-1 .1-2 .1-3 .1-18.3 0-35.4-10.1-45.6-26.9-.4-.7-.9-1.5-1.3-2.3h1.5c2.5 0 4.9.2 7.3.5 8.5 12.8 21.7 20.6 36 21.3 1.9 2.3 3.6 4.7 5.1 7.3zM640.5 421c-1.3 8.2-4.8 16.2-10.2 23.1-8.7 11.1-21.7 18.8-36.3 22.1.8-2.9 1.7-5.7 2.9-8.5 11.1-3.3 20.8-9.7 27.5-18.2 3.9-5 6.7-10.6 8.1-16.5 2.6-.9 5.2-1.5 8-2zM622.3 427.7c-.6 1-1.2 1.9-1.9 2.8-4.8 6.7-10.9 12.3-17.9 16.3 5.2-7.9 12-14.5 19.8-19.1z" />
            </g>
            <g>
                <path fill="#1CAEE4"
                    d="M611.3 694.1v34.1c0 15.8-12.9 28.7-28.7 28.7H417.4c-15.8 0-28.7-12.9-28.7-28.7v-34.1c0-38.4 19.5-72.3 49.1-92.3.3-.2.5-.4.8-.6 7.2-4.8 15.1-8.8 23.4-11.8 11.9-4.3 24.6-6.7 38-6.7 13.3 0 26.1 2.3 38 6.7 8.3 3 16.1 7 23.4 11.8 6.3 4.1 12 8.9 17.3 14.1 20.1 20.2 32.6 48.1 32.6 78.8z" />
                <path fill="#27C1E6"
                    d="M578.7 615.4c-5.3-5.3-11.1-10-17.3-14.2-17.6-11.6-38.7-18.4-61.4-18.4-22.7 0-43.8 6.8-61.4 18.4-30.1 19.9-49.9 54.1-49.9 92.9v16.3c0-38.8 19.8-72.9 49.9-92.9 17.6-11.6 38.7-18.4 61.4-18.4 22.7 0 43.8 6.8 61.4 18.4 6.3 4.1 12 8.9 17.3 14.2 20.1 20.1 32.6 48 32.6 78.7v-16.3c0-30.7-12.5-58.5-32.6-78.7z" />
                <path fill="#E6E7E8"
                    d="M500 582.8v110.6l-12.5-34.2-25.5-69.7c11.9-4.3 24.7-6.7 38-6.7zM538 589.5l-25.5 69.8-12.5 34.2V582.8c13.3 0 26.1 2.4 38 6.7z" />
                <path fill="#FFF"
                    d="m497.7 599.1-23.5 23.8-12.2-33.4 4.4-11.8H500v21.4zM502.3 599.1l23.5 23.8 12.2-33.4-4.4-11.8H500v21.4z" />
                <path fill="#1CAEE4"
                    d="M512.5 659.3 500 693.5l-12.5-34.2 6.7-47.7h11.6z" />
                <g fill="#009ADD">
                    <path
                        d="M496.1 611.6h-1.9l-6.7 47.7 12.5 34.2-8.4-34.2zM505.8 611.6h-1.9l4.5 47.7-8.4 34.2 12.5-34.2z" />
                </g>
                <path fill="#1CAEE4"
                    d="M512.7 613.5 502 624.2c-1.1 1.1-2.9 1.1-4.1 0l-10.7-10.7c-1.1-1.1-1.1-2.9 0-4.1l10.7-10.7c1.1-1.1 2.9-1.1 4.1 0l10.7 10.7c1.1 1.2 1.1 3 0 4.1z" />
                <path fill="#27C1E6"
                    d="M487.3 611.6 498 601c1.1-1.1 2.9-1.1 4.1 0l10.7 10.7c.3.3.5.6.6.9.4-1 .2-2.3-.6-3.1L502 598.8c-1.1-1.1-2.9-1.1-4.1 0l-10.7 10.7c-.8.8-1.1 2.1-.6 3.1.2-.4.4-.7.7-1z" />
                <path fill="#009ADD"
                    d="m512 608.8-10 10c-1.1 1.1-2.9 1.1-4.1 0l-10-10-.7.7c-1.1 1.1-1.1 2.9 0 4.1l10.7 10.7c1.1 1.1 2.9 1.1 4.1 0l10.7-10.7c1.1-1.1 1.1-2.9 0-4.1l-.7-.7z" />
                <path fill="#136DA0"
                    d="M582.6 737.7H417.4c-15.8 0-28.7-12.9-28.7-28.7v19.1c0 15.8 12.9 28.7 28.7 28.7h165.2c15.8 0 28.7-12.9 28.7-28.7V709c0 15.9-12.9 28.7-28.7 28.7z" />
                <ellipse fill="#E6E7E8" cx="442.3" cy="536" rx="11" ry="16" />
                <ellipse fill="#E6E7E8" cx="557.7" cy="536" rx="11" ry="16" />
                <path fill="#FFF"
                    d="M557.7 534.7c0 35.6-25.9 64.4-57.7 64.4-31.9 0-57.7-28.8-57.7-64.4 0-3.3.2-6.6.7-9.8 3-22.1 16.1-40.6 33.9-49.3 5.8-2.9 12.2-4.7 18.8-5.2 1.4-.1 2.8-.2 4.3-.2 27.4 0 50.3 21.3 56.2 49.9 1 4.7 1.5 9.6 1.5 14.6z" />
                <path fill="#D1D3D4"
                    d="M500 589.7c-30.5 0-55.4-26.4-57.6-59.8-.1 1.6-.2 3.2-.2 4.8 0 35.6 25.9 64.4 57.7 64.4 31.9 0 57.7-28.8 57.7-64.4 0-1.6-.1-3.1-.2-4.7-2 33.4-26.9 59.7-57.4 59.7z" />
                <g fill="#009ADD">
                    <path
                        d="M439.2 669.8c-3.6 0-6.5 2.9-6.5 6.5v61.9h13v-61.9c0-3.5-2.9-6.5-6.5-6.5zM560.8 669.8c-3.6 0-6.5 2.9-6.5 6.5v61.9h13v-61.9c0-3.5-2.9-6.5-6.5-6.5z" />
                </g>
                <path fill="#1CAEE4"
                    d="M556.2 520.1c-7.2 3.3-15.1 5.2-23.5 5.2-19.5 0-36.6-9.9-46.7-24.9-4.9-7.2-8.1-15.7-9.1-24.8 2.1-1 4.2-1.9 6.4-2.7 2.4-.8 4.9-1.5 7.4-1.9 1.6-.3 3.3-.5 5-.7.9-.1 1.8-.1 2.8-.2h1.5c2.5 0 4.9.2 7.3.5 14.3 2 27 9.8 36 21.3 1.8 2.3 3.5 4.7 5 7.3 1.1 1.9 2.2 3.9 3.1 5.9 1.1 2.3 2 4.7 2.8 7.2.8 2.7 1.5 5.2 2 7.8z" />
                <path fill="#1CAEE4"
                    d="M495.7 470.4c-.3 11.1-3.8 21.4-9.7 30-9.5 14-25.1 23.4-43.1 24.5.4-3 1-5.9 1.7-8.7.8-2.9 1.7-5.7 2.9-8.5 1.6-3.8 3.5-7.5 5.7-10.9 5.2-7.9 12-14.5 19.8-19.1 1.2-.7 2.5-1.4 3.8-2.1 2-1 4.2-1.9 6.3-2.6 2.6-.9 5.3-1.6 8-2 1.6-.3 3.1-.4 4.6-.6z" />
                <path fill="#009ADD"
                    d="M554.2 512.5c-4.5 1.1-9.1 1.6-13.9 1.6-20 0-38.7-9.9-49.9-26.6-3-4.5-5.4-9.4-7.1-14.6 2.4-.8 4.9-1.5 7.4-1.9 1.5 4.3 3.5 8.4 6.1 12.2 9.8 14.5 26.1 23.2 43.5 23.2 3.8 0 7.5-.4 11.1-1.2 1.1 2.4 2 4.8 2.8 7.3z" />
                <path fill="#009ADD"
                    d="M548.3 499.4c-1 .1-2 .1-3 .1-18.3 0-35.4-10.1-45.6-26.9-.4-.7-.9-1.5-1.3-2.3h1.5c2.5 0 4.9.2 7.3.5 8.5 12.8 21.7 20.6 36 21.3 1.9 2.3 3.6 4.7 5.1 7.3zM491.2 471c-1.3 8.2-4.8 16.2-10.2 23.1-8.7 11.1-21.7 18.8-36.3 22.1.8-2.9 1.7-5.7 2.9-8.5 11.1-3.3 20.8-9.7 27.5-18.2 3.9-5 6.7-10.6 8.1-16.5 2.6-.9 5.2-1.5 8-2zM473.1 477.7c-.6 1-1.2 1.9-1.9 2.8-4.8 6.7-10.9 12.3-17.9 16.3 5.1-7.9 11.9-14.5 19.8-19.1z" />
            </g>
            <g>
                <circle fill="#FFF" cx="500" cy="316.7" r="24.9" />
                <path fill="#D1D3D4"
                    d="M500 333.1c-12.3 0-22.5-8.9-24.5-20.6-.2 1.4-.4 2.8-.4 4.3 0 13.7 11.1 24.9 24.9 24.9 13.7 0 24.9-11.1 24.9-24.9 0-1.4-.1-2.9-.4-4.3-2 11.7-12.2 20.6-24.5 20.6z" />
                <path fill="#FEDE3A"
                    d="M500 368.7c-63.8 0-131.7-18.2-131.7-52s67.8-52 131.7-52 131.7 18.2 131.7 52-67.9 52-131.7 52zm0-89c-72.3 0-116.7 21.5-116.7 37 0 15.4 44.4 37 116.7 37s116.7-21.5 116.7-37c0-15.4-44.4-37-116.7-37z" />
                <path fill="#F7CB15"
                    d="M500 272.2c-68.6 0-124.2 19.9-124.2 44.5s55.6 44.5 124.2 44.5 124.2-19.9 124.2-44.5c0-24.5-55.6-44.5-124.2-44.5zm0 81.5c-72.3 0-116.7-21.5-116.7-37 0-15.4 44.4-37 116.7-37s116.7 21.5 116.7 37-44.4 37-116.7 37z" />
                <path fill="#FEDE3A"
                    d="M552.9 434.1c-29.5 0-70.4-43.6-98-91.4-17-29.5-28.9-59.6-33.5-85-5.1-28.3-.7-47.3 12.7-55.1 13.4-7.8 32.1-2 54 16.5 19.6 16.7 39.8 42 56.8 71.5s28.9 59.6 33.5 85c5.1 28.3.7 47.3-12.7 55.1-3.8 2.4-8.1 3.4-12.8 3.4zM447 214.4c-2.1 0-3.9.4-5.4 1.3-7 4.1-9.1 19.1-5.4 39.4 4.3 23.7 15.6 52.2 31.7 80.2 36.1 62.6 77 90.3 90.4 82.6 7-4.1 9.1-19.1 5.4-39.4-4.3-23.7-15.6-52.2-31.7-80.2-16.2-28-35.2-52-53.5-67.6-12.4-10.5-23.8-16.3-31.5-16.3z" />
                <path fill="#F7CB15"
                    d="M538.5 294.5c-34.3-59.4-79.3-97.6-100.6-85.3-21.3 12.3-10.7 70.4 23.6 129.8 34.3 59.4 79.3 97.6 100.6 85.3 21.3-12.3 10.7-70.4-23.6-129.8zm19.8 123.3c-13.4 7.7-54.2-19.9-90.4-82.6-16.2-28-27.4-56.5-31.7-80.2-3.7-20.2-1.6-35.3 5.4-39.4 1.5-.9 3.3-1.3 5.4-1.3 7.7 0 19.1 5.8 31.5 16.3 18.4 15.6 37.4 39.6 53.5 67.6 16.2 28 27.4 56.5 31.7 80.2 3.7 20.2 1.7 35.3-5.4 39.4z" />
                <path fill="#FEDE3A"
                    d="M447.1 434.1c-4.6 0-8.9-1.1-12.9-3.4-13.4-7.8-17.8-26.8-12.7-55.1 4.6-25.3 16.5-55.5 33.5-85s37.2-54.8 56.8-71.5c21.9-18.6 40.6-24.3 54-16.5 13.4 7.8 17.8 26.8 12.7 55.1-4.6 25.3-16.5 55.5-33.5 85-27.6 47.8-68.5 91.4-97.9 91.4zm-5.4-16.3c13.4 7.7 54.2-20 90.4-82.6 16.2-28 27.4-56.5 31.7-80.2 3.7-20.2 1.6-35.3-5.4-39.4-7-4.1-21.1 1.7-36.8 15-18.4 15.6-37.4 39.6-53.5 67.6-16.2 28-27.4 56.5-31.7 80.2-3.8 20.2-1.8 35.3 5.3 39.4z" />
                <path fill="#F7CB15"
                    d="M538.5 339c34.3-59.4 44.8-117.5 23.6-129.8-21.3-12.3-66.3 25.9-100.6 85.3S416.7 412 437.9 424.3c21.3 12.3 66.3-25.9 100.6-85.3zm-96.8 78.8c-7-4.1-9.1-19.1-5.4-39.4 4.3-23.7 15.6-52.2 31.7-80.2 16.2-28 35.2-52 53.5-67.6 15.7-13.3 29.8-19.1 36.8-15 7 4.1 9.1 19.1 5.4 39.4-4.3 23.7-15.6 52.2-31.7 80.2-36.1 62.6-77 90.3-90.3 82.6z" />
            </g>
        </g>
    </g>
</switch>
</svg>